<svg viewBox="0 0 32 32" version="1.1" 
  xmlns="http://www.w3.org/2000/svg" 
  xmlns:xlink="http://www.w3.org/1999/xlink" xml:space="preserve" 
  xmlns:serif="http://www.serif.com/" style="fill-rule:evenodd;clip-rule:evenodd;stroke-linejoin:round;stroke-miterlimit:1.41421;">
  <path fill="currentColor" d="M29.778,16.444l-3.556,0l0,-5.225l2.276,-2.276c0.521,-0.521 0.521,-1.365 0,-1.886c-0.52,-0.52 -1.365,-0.52 -1.885,0l-2.276,2.276l-0.726,0c0,-4.174 -3.384,-7.555 -7.555,-7.555c-4.174,0 -7.556,3.384 -7.556,7.555l-0.837,0l-2.276,-2.276c-0.52,-0.52 -1.365,-0.52 -1.885,0c-0.521,0.521 -0.521,1.365 0,1.886l2.276,2.276l0,5.225l-3.556,0c-0.736,0 -1.333,0.597 -1.333,1.334c0,0.736 0.597,1.333 1.333,1.333l3.556,0l0,1.333c0,1.627 0.439,3.152 1.205,4.465l-3.037,3.037c-0.521,0.521 -0.521,1.365 0,1.886c0.521,0.52 1.365,0.52 1.886,0l2.835,-2.835c1.582,1.45 3.689,2.336 6,2.336l2.666,0c2.311,0 4.418,-0.886 6,-2.336l2.835,2.835c0.521,0.52 1.365,0.52 1.886,0c0.521,-0.521 0.521,-1.365 0,-1.886l-3.037,-3.037c0.766,-1.313 1.205,-2.838 1.205,-4.465l0,-1.333l3.556,0c0.736,0 1.333,-0.597 1.333,-1.333c0,-0.737 -0.597,-1.334 -1.333,-1.334Zm-13.722,-12c2.7,0 4.888,2.189 4.888,4.889l-9.777,0c0,-2.7 2.188,-4.889 4.889,-4.889Zm1.277,22.223l0,-10.445c0,-0.368 -0.298,-0.666 -0.666,-0.666l-1.334,0c-0.368,0 -0.666,0.298 -0.666,0.666l0,10.445c-3.431,0 -6.223,-2.792 -6.223,-6.223l0,-8.444l15.112,0l0,8.444c0,3.431 -2.792,6.223 -6.223,6.223Z" style="fill-rule:nonzero;"/>
</svg>