<?xml version="1.0" encoding="UTF-8" standalone="no"?><!DOCTYPE svg PUBLIC "-//W3C//DTD SVG 1.1//EN" "http://www.w3.org/Graphics/SVG/1.1/DTD/svg11.dtd">
<svg width="100%" height="100%" viewBox="0 0 194 225" version="1.1" 
  xmlns="http://www.w3.org/2000/svg" 
  xmlns:xlink="http://www.w3.org/1999/xlink" xml:space="preserve" 
  xmlns:serif="http://www.serif.com/" style="fill-rule:evenodd;clip-rule:evenodd;stroke-linejoin:round;stroke-miterlimit:1.41421;">
  <g fill="currentColor" opacity="0.5">
    <circle cx="49.725" cy="2.7" r="2.7"/>
    <circle cx="57.6" cy="2.7" r="2.7"/>
    <circle cx="49.725" cy="10.575" r="2.7"/>
    <circle cx="57.6" cy="10.575" r="2.7"/>
    <circle cx="2.7" cy="18.45" r="2.7"/>
    <circle cx="10.575" cy="18.45" r="2.7"/>
    <circle cx="18.45" cy="18.45" r="2.7"/>
    <circle cx="26.1" cy="18.45" r="2.7"/>
    <circle cx="33.975" cy="18.45" r="2.7"/>
    <circle cx="41.85" cy="18.45" r="2.7"/>
    <circle cx="49.725" cy="18.45" r="2.7"/>
    <circle cx="57.6" cy="18.45" r="2.7"/>
    <circle cx="2.7" cy="26.325" r="2.7"/>
    <circle cx="10.575" cy="26.325" r="2.7"/>
    <circle cx="18.45" cy="26.325" r="2.7"/>
    <circle cx="26.1" cy="26.325" r="2.7"/>
    <circle cx="33.975" cy="26.325" r="2.7"/>
    <circle cx="41.85" cy="26.325" r="2.7"/>
    <circle cx="49.725" cy="26.325" r="2.7"/>
    <circle cx="57.6" cy="26.325" r="2.7"/>
    <circle cx="65.475" cy="26.325" r="2.7"/>
    <circle cx="2.7" cy="34.2" r="2.7"/>
    <circle cx="10.575" cy="34.2" r="2.7"/>
    <circle cx="18.45" cy="34.2" r="2.7"/>
    <circle cx="26.1" cy="34.2" r="2.7"/>
    <circle cx="33.975" cy="34.2" r="2.7"/>
    <circle cx="41.85" cy="34.2" r="2.7"/>
    <circle cx="49.725" cy="34.2" r="2.7"/>
    <circle cx="57.6" cy="34.2" r="2.7"/>
    <circle cx="65.475" cy="34.2" r="2.7"/>
    <circle cx="73.125" cy="34.2" r="2.7"/>
    <circle cx="81" cy="34.2" r="2.7"/>
    <circle cx="88.875" cy="34.2" r="2.7"/>
    <circle cx="96.75" cy="34.2" r="2.7"/>
    <circle cx="104.625" cy="34.2" r="2.7"/>
    <circle cx="112.5" cy="34.2" r="2.7"/>
    <circle cx="2.7" cy="41.85" r="2.7"/>
    <circle cx="10.575" cy="41.85" r="2.7"/>
    <circle cx="18.45" cy="41.85" r="2.7"/>
    <circle cx="26.1" cy="41.85" r="2.7"/>
    <circle cx="33.975" cy="41.85" r="2.7"/>
    <circle cx="41.85" cy="41.85" r="2.7"/>
    <circle cx="49.725" cy="41.85" r="2.7"/>
    <circle cx="57.6" cy="41.85" r="2.7"/>
    <circle cx="65.475" cy="41.85" r="2.7"/>
    <circle cx="73.125" cy="41.85" r="2.7"/>
    <circle cx="81" cy="41.85" r="2.7"/>
    <circle cx="88.875" cy="41.85" r="2.7"/>
    <circle cx="96.75" cy="41.85" r="2.7"/>
    <circle cx="104.625" cy="41.85" r="2.7"/>
    <circle cx="112.5" cy="41.85" r="2.7"/>
    <circle cx="120.375" cy="41.85" r="2.7"/>
    <circle cx="2.7" cy="49.725" r="2.7"/>
    <circle cx="10.575" cy="49.725" r="2.7"/>
    <circle cx="18.45" cy="49.725" r="2.7"/>
    <circle cx="26.1" cy="49.725" r="2.7"/>
    <circle cx="33.975" cy="49.725" r="2.7"/>
    <circle cx="41.85" cy="49.725" r="2.7"/>
    <circle cx="49.725" cy="49.725" r="2.7"/>
    <circle cx="57.6" cy="49.725" r="2.7"/>
    <circle cx="65.475" cy="49.725" r="2.7"/>
    <circle cx="73.125" cy="49.725" r="2.7"/>
    <circle cx="81" cy="49.725" r="2.7"/>
    <circle cx="88.875" cy="49.725" r="2.7"/>
    <circle cx="96.75" cy="49.725" r="2.7"/>
    <circle cx="104.625" cy="49.725" r="2.7"/>
    <circle cx="112.5" cy="49.725" r="2.7"/>
    <circle cx="120.375" cy="49.725" r="2.7"/>
    <ellipse cx="128.025" cy="49.725" rx="2.7" ry="2.7"/>
    <ellipse cx="135.9" cy="49.725" rx="2.7" ry="2.7"/>
    <ellipse cx="151.65" cy="49.725" rx="2.7" ry="2.7"/>
    <ellipse cx="159.525" cy="49.725" rx="2.7" ry="2.7"/>
    <circle cx="2.7" cy="57.6" r="2.7"/>
    <circle cx="10.575" cy="57.6" r="2.7"/>
    <circle cx="18.45" cy="57.6" r="2.7"/>
    <circle cx="26.1" cy="57.6" r="2.7"/>
    <circle cx="33.975" cy="57.6" r="2.7"/>
    <circle cx="41.85" cy="57.6" r="2.7"/>
    <circle cx="49.725" cy="57.6" r="2.7"/>
    <circle cx="57.6" cy="57.6" r="2.7"/>
    <circle cx="65.475" cy="57.6" r="2.7"/>
    <circle cx="73.125" cy="57.6" r="2.7"/>
    <circle cx="81" cy="57.6" r="2.7"/>
    <circle cx="88.875" cy="57.6" r="2.7"/>
    <circle cx="96.75" cy="57.6" r="2.7"/>
    <circle cx="104.625" cy="57.6" r="2.7"/>
    <circle cx="112.5" cy="57.6" r="2.7"/>
    <circle cx="120.375" cy="57.6" r="2.7"/>
    <ellipse cx="128.025" cy="57.6" rx="2.7" ry="2.7"/>
    <ellipse cx="135.9" cy="57.6" rx="2.7" ry="2.7"/>
    <ellipse cx="143.775" cy="57.6" rx="2.7" ry="2.7"/>
    <ellipse cx="151.65" cy="57.6" rx="2.7" ry="2.7"/>
    <ellipse cx="159.525" cy="57.6" rx="2.7" ry="2.7"/>
    <ellipse cx="167.4" cy="57.6" rx="2.7" ry="2.7"/>
    <ellipse cx="175.05" cy="57.6" rx="2.7" ry="2.7"/>
    <ellipse cx="182.925" cy="57.6" rx="2.7" ry="2.7"/>
    <ellipse cx="190.8" cy="57.6" rx="2.7" ry="2.7"/>
    <circle cx="10.575" cy="65.475" r="2.7"/>
    <circle cx="18.45" cy="65.475" r="2.7"/>
    <circle cx="26.1" cy="65.475" r="2.7"/>
    <circle cx="33.975" cy="65.475" r="2.7"/>
    <circle cx="41.85" cy="65.475" r="2.7"/>
    <circle cx="49.725" cy="65.475" r="2.7"/>
    <circle cx="57.6" cy="65.475" r="2.7"/>
    <circle cx="65.475" cy="65.475" r="2.7"/>
    <circle cx="73.125" cy="65.475" r="2.7"/>
    <circle cx="81" cy="65.475" r="2.7"/>
    <circle cx="88.875" cy="65.475" r="2.7"/>
    <circle cx="96.75" cy="65.475" r="2.7"/>
    <circle cx="104.625" cy="65.475" r="2.7"/>
    <circle cx="112.5" cy="65.475" r="2.7"/>
    <circle cx="120.375" cy="65.475" r="2.7"/>
    <ellipse cx="128.025" cy="65.475" rx="2.7" ry="2.7"/>
    <ellipse cx="135.9" cy="65.475" rx="2.7" ry="2.7"/>
    <ellipse cx="143.775" cy="65.475" rx="2.7" ry="2.7"/>
    <ellipse cx="151.65" cy="65.475" rx="2.7" ry="2.7"/>
    <ellipse cx="159.525" cy="65.475" rx="2.7" ry="2.7"/>
    <ellipse cx="167.4" cy="65.475" rx="2.7" ry="2.7"/>
    <ellipse cx="175.05" cy="65.475" rx="2.7" ry="2.7"/>
    <ellipse cx="182.925" cy="65.475" rx="2.7" ry="2.7"/>
    <circle cx="10.575" cy="73.35" r="2.7"/>
    <circle cx="18.45" cy="73.35" r="2.7"/>
    <circle cx="26.1" cy="73.35" r="2.7"/>
    <circle cx="33.975" cy="73.35" r="2.7"/>
    <circle cx="41.85" cy="73.35" r="2.7"/>
    <circle cx="49.725" cy="73.35" r="2.7"/>
    <circle cx="57.6" cy="73.35" r="2.7"/>
    <circle cx="65.475" cy="73.35" r="2.7"/>
    <circle cx="73.125" cy="73.35" r="2.7"/>
    <circle cx="81" cy="73.35" r="2.7"/>
    <circle cx="88.875" cy="73.35" r="2.7"/>
    <circle cx="96.75" cy="73.35" r="2.7"/>
    <circle cx="104.625" cy="73.35" r="2.7"/>
    <circle cx="112.5" cy="73.35" r="2.7"/>
    <circle cx="120.375" cy="73.35" r="2.7"/>
    <ellipse cx="128.025" cy="73.35" rx="2.7" ry="2.7"/>
    <ellipse cx="135.9" cy="73.35" rx="2.7" ry="2.7"/>
    <ellipse cx="143.775" cy="73.35" rx="2.7" ry="2.7"/>
    <ellipse cx="151.65" cy="73.35" rx="2.7" ry="2.7"/>
    <ellipse cx="159.525" cy="73.35" rx="2.7" ry="2.7"/>
    <circle cx="10.575" cy="81.225" r="2.7"/>
    <circle cx="18.45" cy="81.225" r="2.7"/>
    <circle cx="26.1" cy="81.225" r="2.7"/>
    <circle cx="33.975" cy="81.225" r="2.7"/>
    <circle cx="41.85" cy="81.225" r="2.7"/>
    <circle cx="49.725" cy="81.225" r="2.7"/>
    <circle cx="57.6" cy="81.225" r="2.7"/>
    <circle cx="65.475" cy="81.225" r="2.7"/>
    <circle cx="73.125" cy="81.225" r="2.7"/>
    <circle cx="81" cy="81.225" r="2.7"/>
    <circle cx="88.875" cy="81.225" r="2.7"/>
    <circle cx="96.75" cy="81.225" r="2.7"/>
    <circle cx="104.625" cy="81.225" r="2.7"/>
    <circle cx="112.5" cy="81.225" r="2.7"/>
    <circle cx="120.375" cy="81.225" r="2.7"/>
    <ellipse cx="128.025" cy="81.225" rx="2.7" ry="2.7"/>
    <ellipse cx="135.9" cy="81.225" rx="2.7" ry="2.7"/>
    <ellipse cx="143.775" cy="81.225" rx="2.7" ry="2.7"/>
    <ellipse cx="151.65" cy="81.225" rx="2.7" ry="2.7"/>
    <circle cx="10.575" cy="88.875" r="2.7"/>
    <circle cx="18.45" cy="88.875" r="2.7"/>
    <circle cx="26.1" cy="88.875" r="2.7"/>
    <circle cx="33.975" cy="88.875" r="2.7"/>
    <circle cx="41.85" cy="88.875" r="2.7"/>
    <circle cx="49.725" cy="88.875" r="2.7"/>
    <circle cx="57.6" cy="88.875" r="2.7"/>
    <circle cx="65.475" cy="88.875" r="2.7"/>
    <circle cx="73.125" cy="88.875" r="2.7"/>
    <circle cx="81" cy="88.875" r="2.7"/>
    <circle cx="88.875" cy="88.875" r="2.7"/>
    <circle cx="96.75" cy="88.875" r="2.7"/>
    <circle cx="104.625" cy="88.875" r="2.7"/>
    <circle cx="112.5" cy="88.875" r="2.7"/>
    <circle cx="120.375" cy="88.875" r="2.7"/>
    <ellipse cx="128.025" cy="88.875" rx="2.7" ry="2.7"/>
    <ellipse cx="135.9" cy="88.875" rx="2.7" ry="2.7"/>
    <ellipse cx="143.775" cy="88.875" rx="2.7" ry="2.7"/>
    <circle cx="10.575" cy="96.75" r="2.7"/>
    <circle cx="18.45" cy="96.75" r="2.7"/>
    <circle cx="26.1" cy="96.75" r="2.7"/>
    <circle cx="33.975" cy="96.75" r="2.7"/>
    <circle cx="41.85" cy="96.75" r="2.7"/>
    <circle cx="49.725" cy="96.75" r="2.7"/>
    <circle cx="57.6" cy="96.75" r="2.7"/>
    <circle cx="65.475" cy="96.75" r="2.7"/>
    <circle cx="73.125" cy="96.75" r="2.7"/>
    <circle cx="81" cy="96.75" r="2.7"/>
    <circle cx="88.875" cy="96.75" r="2.7"/>
    <circle cx="96.75" cy="96.75" r="2.7"/>
    <circle cx="104.625" cy="96.75" r="2.7"/>
    <circle cx="112.5" cy="96.75" r="2.7"/>
    <circle cx="120.375" cy="96.75" r="2.7"/>
    <ellipse cx="128.025" cy="96.75" rx="2.7" ry="2.7"/>
    <ellipse cx="135.9" cy="96.75" rx="2.7" ry="2.7"/>
    <circle cx="10.575" cy="104.625" r="2.7"/>
    <circle cx="18.45" cy="104.625" r="2.7"/>
    <circle cx="26.1" cy="104.625" r="2.7"/>
    <circle cx="33.975" cy="104.625" r="2.7"/>
    <circle cx="41.85" cy="104.625" r="2.7"/>
    <circle cx="49.725" cy="104.625" r="2.7"/>
    <circle cx="57.6" cy="104.625" r="2.7"/>
    <circle cx="65.475" cy="104.625" r="2.7"/>
    <circle cx="73.125" cy="104.625" r="2.7"/>
    <circle cx="81" cy="104.625" r="2.7"/>
    <circle cx="88.875" cy="104.625" r="2.7"/>
    <circle cx="96.75" cy="104.625" r="2.7"/>
    <circle cx="104.625" cy="104.625" r="2.7"/>
    <circle cx="112.5" cy="104.625" r="2.7"/>
    <circle cx="120.375" cy="104.625" r="2.7"/>
    <ellipse cx="128.025" cy="104.625" rx="2.7" ry="2.7"/>
    <circle cx="10.575" cy="112.5" r="2.7"/>
    <circle cx="18.45" cy="112.5" r="2.7"/>
    <circle cx="26.1" cy="112.5" r="2.7"/>
    <circle cx="33.975" cy="112.5" r="2.7"/>
    <circle cx="41.85" cy="112.5" r="2.7"/>
    <circle cx="49.725" cy="112.5" r="2.7"/>
    <circle cx="57.6" cy="112.5" r="2.7"/>
    <circle cx="65.475" cy="112.5" r="2.7"/>
    <circle cx="73.125" cy="112.5" r="2.7"/>
    <circle cx="81" cy="112.5" r="2.7"/>
    <circle cx="88.875" cy="112.5" r="2.7"/>
    <circle cx="96.75" cy="112.5" r="2.7"/>
    <circle cx="104.625" cy="112.5" r="2.7"/>
    <circle cx="112.5" cy="112.5" r="2.7"/>
    <circle cx="120.375" cy="112.5" r="2.7"/>
    <ellipse cx="128.025" cy="112.5" rx="2.7" ry="2.7"/>
    <ellipse cx="18.45" cy="120.375" rx="2.7" ry="2.7"/>
    <ellipse cx="26.1" cy="120.375" rx="2.7" ry="2.7"/>
    <ellipse cx="33.975" cy="120.375" rx="2.7" ry="2.7"/>
    <ellipse cx="41.85" cy="120.375" rx="2.7" ry="2.7"/>
    <ellipse cx="49.725" cy="120.375" rx="2.7" ry="2.7"/>
    <ellipse cx="57.6" cy="120.375" rx="2.7" ry="2.7"/>
    <ellipse cx="65.475" cy="120.375" rx="2.7" ry="2.7"/>
    <ellipse cx="73.125" cy="120.375" rx="2.7" ry="2.7"/>
    <ellipse cx="81" cy="120.375" rx="2.7" ry="2.7"/>
    <ellipse cx="88.875" cy="120.375" rx="2.7" ry="2.7"/>
    <ellipse cx="96.75" cy="120.375" rx="2.7" ry="2.7"/>
    <ellipse cx="104.625" cy="120.375" rx="2.7" ry="2.7"/>
    <ellipse cx="112.5" cy="120.375" rx="2.7" ry="2.7"/>
    <ellipse cx="120.375" cy="120.375" rx="2.7" ry="2.7"/>
    <ellipse cx="128.025" cy="120.375" rx="2.7" ry="2.7"/>
    <ellipse cx="18.45" cy="128.25" rx="2.7" ry="2.7"/>
    <ellipse cx="26.1" cy="128.25" rx="2.7" ry="2.7"/>
    <ellipse cx="33.975" cy="128.25" rx="2.7" ry="2.7"/>
    <ellipse cx="41.85" cy="128.25" rx="2.7" ry="2.7"/>
    <ellipse cx="49.725" cy="128.25" rx="2.7" ry="2.7"/>
    <ellipse cx="57.6" cy="128.25" rx="2.7" ry="2.7"/>
    <ellipse cx="65.475" cy="128.25" rx="2.7" ry="2.7"/>
    <ellipse cx="73.125" cy="128.25" rx="2.7" ry="2.7"/>
    <ellipse cx="81" cy="128.25" rx="2.7" ry="2.7"/>
    <ellipse cx="88.875" cy="128.25" rx="2.7" ry="2.7"/>
    <ellipse cx="96.75" cy="128.25" rx="2.7" ry="2.7"/>
    <ellipse cx="104.625" cy="128.25" rx="2.7" ry="2.7"/>
    <ellipse cx="112.5" cy="128.25" rx="2.7" ry="2.7"/>
    <ellipse cx="120.375" cy="128.25" rx="2.7" ry="2.7"/>
    <ellipse cx="128.025" cy="128.25" rx="2.7" ry="2.7"/>
    <ellipse cx="18.45" cy="136.125" rx="2.7" ry="2.7"/>
    <ellipse cx="26.1" cy="136.125" rx="2.7" ry="2.7"/>
    <ellipse cx="33.975" cy="136.125" rx="2.7" ry="2.7"/>
    <ellipse cx="41.85" cy="136.125" rx="2.7" ry="2.7"/>
    <ellipse cx="49.725" cy="136.125" rx="2.7" ry="2.7"/>
    <ellipse cx="57.6" cy="136.125" rx="2.7" ry="2.7"/>
    <ellipse cx="65.475" cy="136.125" rx="2.7" ry="2.7"/>
    <ellipse cx="73.125" cy="136.125" rx="2.7" ry="2.7"/>
    <ellipse cx="81" cy="136.125" rx="2.7" ry="2.7"/>
    <ellipse cx="88.875" cy="136.125" rx="2.7" ry="2.7"/>
    <ellipse cx="96.75" cy="136.125" rx="2.7" ry="2.7"/>
    <ellipse cx="104.625" cy="136.125" rx="2.7" ry="2.7"/>
    <ellipse cx="112.5" cy="136.125" rx="2.7" ry="2.7"/>
    <circle cx="10.575" cy="143.775" r="2.7"/>
    <circle cx="18.45" cy="143.775" r="2.7"/>
    <circle cx="26.1" cy="143.775" r="2.7"/>
    <circle cx="33.975" cy="143.775" r="2.7"/>
    <circle cx="41.85" cy="143.775" r="2.7"/>
    <circle cx="49.725" cy="143.775" r="2.7"/>
    <circle cx="57.6" cy="143.775" r="2.7"/>
    <circle cx="65.475" cy="143.775" r="2.7"/>
    <circle cx="73.125" cy="143.775" r="2.7"/>
    <circle cx="81" cy="143.775" r="2.7"/>
    <circle cx="88.875" cy="143.775" r="2.7"/>
    <circle cx="96.75" cy="143.775" r="2.7"/>
    <circle cx="104.625" cy="143.775" r="2.7"/>
    <circle cx="112.5" cy="143.775" r="2.7"/>
    <circle cx="10.575" cy="151.65" r="2.7"/>
    <circle cx="18.45" cy="151.65" r="2.7"/>
    <circle cx="26.1" cy="151.65" r="2.7"/>
    <circle cx="33.975" cy="151.65" r="2.7"/>
    <circle cx="41.85" cy="151.65" r="2.7"/>
    <circle cx="49.725" cy="151.65" r="2.7"/>
    <circle cx="57.6" cy="151.65" r="2.7"/>
    <circle cx="65.475" cy="151.65" r="2.7"/>
    <circle cx="73.125" cy="151.65" r="2.7"/>
    <circle cx="81" cy="151.65" r="2.7"/>
    <circle cx="88.875" cy="151.65" r="2.7"/>
    <circle cx="96.75" cy="151.65" r="2.7"/>
    <circle cx="104.625" cy="151.65" r="2.7"/>
    <circle cx="112.5" cy="151.65" r="2.7"/>
    <circle cx="18.45" cy="159.525" r="2.7"/>
    <circle cx="26.1" cy="159.525" r="2.7"/>
    <circle cx="33.975" cy="159.525" r="2.7"/>
    <circle cx="41.85" cy="159.525" r="2.7"/>
    <circle cx="49.725" cy="159.525" r="2.7"/>
    <circle cx="57.6" cy="159.525" r="2.7"/>
    <circle cx="65.475" cy="159.525" r="2.7"/>
    <circle cx="73.125" cy="159.525" r="2.7"/>
    <circle cx="81" cy="159.525" r="2.7"/>
    <circle cx="88.875" cy="159.525" r="2.7"/>
    <circle cx="96.75" cy="159.525" r="2.7"/>
    <circle cx="104.625" cy="159.525" r="2.7"/>
    <circle cx="112.5" cy="159.525" r="2.7"/>
    <circle cx="18.45" cy="167.4" r="2.7"/>
    <circle cx="26.1" cy="167.4" r="2.7"/>
    <circle cx="33.975" cy="167.4" r="2.7"/>
    <circle cx="41.85" cy="167.4" r="2.7"/>
    <circle cx="49.725" cy="167.4" r="2.7"/>
    <circle cx="57.6" cy="167.4" r="2.7"/>
    <circle cx="65.475" cy="167.4" r="2.7"/>
    <circle cx="73.125" cy="167.4" r="2.7"/>
    <circle cx="81" cy="167.4" r="2.7"/>
    <circle cx="88.875" cy="167.4" r="2.7"/>
    <circle cx="96.75" cy="167.4" r="2.7"/>
    <circle cx="104.625" cy="167.4" r="2.7"/>
    <circle cx="112.5" cy="167.4" r="2.7"/>
    <circle cx="18.45" cy="175.275" r="2.7"/>
    <circle cx="26.1" cy="175.275" r="2.7"/>
    <circle cx="33.975" cy="175.275" r="2.7"/>
    <circle cx="41.85" cy="175.275" r="2.7"/>
    <circle cx="49.725" cy="175.275" r="2.7"/>
    <circle cx="57.6" cy="175.275" r="2.7"/>
    <circle cx="65.475" cy="175.275" r="2.7"/>
    <circle cx="73.125" cy="175.275" r="2.7"/>
    <circle cx="81" cy="175.275" r="2.7"/>
    <circle cx="88.875" cy="175.275" r="2.7"/>
    <circle cx="96.75" cy="175.275" r="2.7"/>
    <circle cx="104.625" cy="175.275" r="2.7"/>
    <circle cx="112.5" cy="175.275" r="2.7"/>
    <circle cx="18.45" cy="183.15" r="2.7"/>
    <circle cx="26.1" cy="183.15" r="2.7"/>
    <circle cx="33.975" cy="183.15" r="2.7"/>
    <circle cx="41.85" cy="183.15" r="2.7"/>
    <circle cx="49.725" cy="183.15" r="2.7"/>
    <circle cx="57.6" cy="183.15" r="2.7"/>
    <circle cx="65.475" cy="183.15" r="2.7"/>
    <circle cx="73.125" cy="183.15" r="2.7"/>
    <circle cx="81" cy="183.15" r="2.7"/>
    <circle cx="88.875" cy="183.15" r="2.7"/>
    <circle cx="96.75" cy="183.15" r="2.7"/>
    <circle cx="104.625" cy="183.15" r="2.7"/>
    <circle cx="112.5" cy="183.15" r="2.7"/>
    <circle cx="120.375" cy="183.15" r="2.7"/>
    <circle cx="18.45" cy="190.8" r="2.7"/>
    <circle cx="26.1" cy="190.8" r="2.7"/>
    <circle cx="33.975" cy="190.8" r="2.7"/>
    <circle cx="41.85" cy="190.8" r="2.7"/>
    <circle cx="49.725" cy="190.8" r="2.7"/>
    <circle cx="57.6" cy="190.8" r="2.7"/>
    <circle cx="65.475" cy="190.8" r="2.7"/>
    <circle cx="73.125" cy="190.8" r="2.7"/>
    <circle cx="81" cy="190.8" r="2.7"/>
    <circle cx="88.875" cy="190.8" r="2.7"/>
    <circle cx="96.75" cy="190.8" r="2.7"/>
    <circle cx="104.625" cy="190.8" r="2.7"/>
    <circle cx="112.5" cy="190.8" r="2.7"/>
    <circle cx="120.375" cy="190.8" r="2.7"/>
    <ellipse cx="128.025" cy="190.8" rx="2.7" ry="2.7"/>
    <circle cx="18.45" cy="198.675" r="2.7"/>
    <circle cx="26.1" cy="198.675" r="2.7"/>
    <circle cx="33.975" cy="198.675" r="2.7"/>
    <circle cx="41.85" cy="198.675" r="2.7"/>
    <circle cx="49.725" cy="198.675" r="2.7"/>
    <circle cx="57.6" cy="198.675" r="2.7"/>
    <circle cx="65.475" cy="198.675" r="2.7"/>
    <circle cx="73.125" cy="198.675" r="2.7"/>
    <circle cx="81" cy="198.675" r="2.7"/>
    <circle cx="88.875" cy="198.675" r="2.7"/>
    <circle cx="96.75" cy="198.675" r="2.7"/>
    <circle cx="104.625" cy="198.675" r="2.7"/>
    <circle cx="112.5" cy="198.675" r="2.7"/>
    <circle cx="120.375" cy="198.675" r="2.7"/>
    <ellipse cx="128.025" cy="198.675" rx="2.7" ry="2.7"/>
    <ellipse cx="135.9" cy="198.675" rx="2.7" ry="2.7"/>
    <ellipse cx="143.775" cy="198.675" rx="2.7" ry="2.7"/>
    <circle cx="18.45" cy="206.55" r="2.7"/>
    <circle cx="26.1" cy="206.55" r="2.7"/>
    <circle cx="33.975" cy="206.55" r="2.7"/>
    <circle cx="41.85" cy="206.55" r="2.7"/>
    <circle cx="49.725" cy="206.55" r="2.7"/>
    <circle cx="57.6" cy="206.55" r="2.7"/>
    <circle cx="65.475" cy="206.55" r="2.7"/>
    <circle cx="73.125" cy="206.55" r="2.7"/>
    <circle cx="81" cy="206.55" r="2.7"/>
    <circle cx="88.875" cy="206.55" r="2.7"/>
    <circle cx="96.75" cy="206.55" r="2.7"/>
    <circle cx="104.625" cy="206.55" r="2.7"/>
    <circle cx="112.5" cy="206.55" r="2.7"/>
    <circle cx="120.375" cy="206.55" r="2.7"/>
    <ellipse cx="128.025" cy="206.55" rx="2.7" ry="2.7"/>
    <ellipse cx="135.9" cy="206.55" rx="2.7" ry="2.7"/>
    <ellipse cx="143.775" cy="206.55" rx="2.7" ry="2.7"/>
    <ellipse cx="151.65" cy="206.55" rx="2.7" ry="2.7"/>
    <circle cx="18.45" cy="214.425" r="2.7"/>
    <circle cx="26.1" cy="214.425" r="2.7"/>
    <circle cx="33.975" cy="214.425" r="2.7"/>
    <circle cx="41.85" cy="214.425" r="2.7"/>
    <circle cx="49.725" cy="214.425" r="2.7"/>
    <circle cx="57.6" cy="214.425" r="2.7"/>
    <circle cx="65.475" cy="214.425" r="2.7"/>
    <circle cx="73.125" cy="214.425" r="2.7"/>
    <circle cx="81" cy="214.425" r="2.7"/>
    <circle cx="88.875" cy="214.425" r="2.7"/>
    <circle cx="96.75" cy="214.425" r="2.7"/>
    <circle cx="104.625" cy="214.425" r="2.7"/>
    <circle cx="112.5" cy="214.425" r="2.7"/>
    <circle cx="120.375" cy="214.425" r="2.7"/>
    <ellipse cx="128.025" cy="214.425" rx="2.7" ry="2.7"/>
    <ellipse cx="135.9" cy="214.425" rx="2.7" ry="2.7"/>
    <ellipse cx="143.775" cy="214.425" rx="2.7" ry="2.7"/>
    <ellipse cx="151.65" cy="214.425" rx="2.7" ry="2.7"/>
    <circle cx="18.45" cy="222.3" r="2.7"/>
    <circle cx="26.1" cy="222.3" r="2.7"/>
    <circle cx="33.975" cy="222.3" r="2.7"/>
    <circle cx="41.85" cy="222.3" r="2.7"/>
    <circle cx="49.725" cy="222.3" r="2.7"/>
    <circle cx="57.6" cy="222.3" r="2.7"/>
    <circle cx="65.475" cy="222.3" r="2.7"/>
    <circle cx="73.125" cy="222.3" r="2.7"/>
    <circle cx="81" cy="222.3" r="2.7"/>
    <circle cx="88.875" cy="222.3" r="2.7"/>
    <circle cx="96.75" cy="222.3" r="2.7"/>
    <circle cx="104.625" cy="222.3" r="2.7"/>
    <circle cx="112.5" cy="222.3" r="2.7"/>
    <circle cx="120.375" cy="222.3" r="2.7"/>
    <ellipse cx="128.025" cy="222.3" rx="2.7" ry="2.7"/>
    <ellipse cx="135.9" cy="222.3" rx="2.7" ry="2.7"/>
    <ellipse cx="143.775" cy="222.3" rx="2.7" ry="2.7"/>
    <ellipse cx="151.65" cy="222.3" rx="2.7" ry="2.7"/>
  </g>
  <clipPath id="_clip1">
    <rect id="map-marker-alt-solid" x="76.624" y="117.477" width="39.878" height="53.17"/>
  </clipPath>
  <g clip-path="url(#_clip1)">
    <path d="M94.514,169.574c-15.089,-21.874 -17.89,-24.119 -17.89,-32.159c0,-11.011 8.927,-19.938 19.939,-19.938c11.012,0 19.939,8.927 19.939,19.938c0,8.04 -2.801,10.285 -17.89,32.159c-0.99,1.43 -3.108,1.43 -4.098,0Zm2.049,-23.851c4.588,0 8.308,-3.719 8.308,-8.308c0,-4.588 -3.72,-8.307 -8.308,-8.307c-4.588,0 -8.308,3.719 -8.308,8.307c0,4.589 3.72,8.308 8.308,8.308Z" style="fill:currentColor;fill-rule:nonzero;"/>
  </g>
</svg>