<svg height="64" viewBox="0 0 32 32" width="64" 
  xmlns="http://www.w3.org/2000/svg">
  <g fill="currentColor" transform="translate(0 -1020.3622)">
    <path d="m.77354014 1042.5127c-.0000018-.4809.0665018-.885.1995105-1.2125.14323626-.3376.33763066-.6087.58318516-.8134.2455483-.2045.5320247-.3529.8594297-.445.3273981-.093.6803778-.1381 1.0589404-.1381.358091 0 .6957243.046 1.0129001.1381.3273959.092.6138723.2405.8594297.445.2455447.2047.4399398.4758.5831848.8134.1432313.3275.2148504.7316.2148572 1.2125-.0000068.4603-.071625.8543-.2148572 1.1817-.143245.3273-.3376401.5985-.5831848.8133-.2455574.2149-.5320338.3684-.8594297.4604-.3171758.1025-.6548091.1535-1.0129001.1535-.3785626 0-.7315423-.051-1.0589404-.1535-.327405-.092-.6138814-.2455-.8594297-.4604-.2455545-.2148-.4399489-.486-.58318516-.8133-.13300885-.3274-.1995123-.7214-.1995105-1.1817"/>
    <path d="m9.4311284 1052.258c-.4911036 0-.9975536-.036-1.5193493-.1074-.5217963-.072-.9566273-.1638-1.3044927-.2763v-3.6832c.317172.1022.6138797.1739.8901246.2147.276245.051.5882998.077.9361645.077.2557821 0 .4962178-.041.7213072-.1227.2353185-.072.4348295-.2099.5985318-.4144.1739302-.1943.3120525-.4604.4143685-.798.102311-.3275.153467-.752.153469-1.2739v-18.3243h4.680825v19.0149c-.000008.7879-.10232 1.5245-.30694 2.21-.1944.6957-.516687 1.2994-.966859 1.8109-.43995.5218-1.012904.9312-1.71886 1.2278-.705962.2967-1.565392.4451-2.5782896.4451m.6906136-29.1438c-.000002-.44.0665-.8033.19951-1.0898.133004-.2967.312054-.532.537145-.7059.235316-.1841.506446-.312.813389-.3837.317165-.072.649683-.1075.997552-.1075.347859 0 .675261.035.982205.1075.306935.072.572948.1996.798044.3837.235313.1739.419476.4092.55249.7059.143231.2865.21485.6498.214857 1.0898-.000007.4296-.07163.7928-.214857 1.0896-.133014.2966-.317177.537-.55249.7212-.225096.174-.491109.3019-.798044.3837-.306944.072-.634346.1075-.982205.1075-.347869 0-.680387-.035-.997552-.1075-.306943-.082-.578073-.2097-.813389-.3837-.225091-.1842-.404141-.4246-.537145-.7212-.133008-.2968-.199512-.66-.19951-1.0896"/>
    <path d="m31.256413 1039.612c-.000014.9004-.163715 1.6883-.491104 2.3635-.327414.6753-.792938 1.238-1.396573 1.6882-.603658.4501-1.335197.7878-2.194616 1.0129-.859438.225-1.821181.3375-2.885229.3375-.562729 0-1.084525-.021-1.565391-.061-.480876-.031-.936169-.087-1.36588-.1688-.429718-.082-.844086-.1842-1.243104-.307-.399024-.1228-.80316-.2762-1.21241-.4604v-3.8674c.429714.2148.87989.4093 1.350533.5832.480868.174.956624.3273 1.427267.4603.470637.1228.925929.2201 1.365879.2917.450173.072.864541.1074 1.243106.1074.419476 0 .777571-.035 1.074287-.1074.2967-.082.537136-.1892.721308-.3222.194386-.1433.332508-.307.414367-.4911.09208-.1945.138115-.3991.138124-.614-.000009-.2148-.03582-.4042-.107429-.5678-.0614-.1739-.209751-.353-.445062-.5372-.235329-.1943-.583194-.4092-1.043594-.6445-.450184-.2456-1.058947-.5422-1.826289-.8901-.74689-.3377-1.396578-.6702-1.949065-.9977-.542263-.3376-.99244-.711-1.350532-1.1202-.347867-.4093-.608765-.8748-.782696-1.3966-.173933-.532-.2609-1.1612-.260898-1.8877-.000002-.798.153468-1.4937.46041-2.0871.306936-.6037.741766-1.105 1.304491-1.5041.562718-.399 1.237984-.6957 2.0258-.8902.798035-.2045 1.683044-.3068 2.655025-.3068 1.023122 0 1.995096.1176 2.915923.353.920806.2353 1.867201.5882 2.839188 1.0589l-1.41192 3.3149c-.777591-.3683-1.519361-.67-2.225311-.9055-.70597-.2352-1.41193-.3528-2.11788-.3529-.63435.0001-1.094757.1126-1.381228.3377-.276251.225-.414374.5319-.414367.9207-.000007.2047.03579.3888.107429.5525.07161.1535.21485.3171.429714.4912.214851.1636.516674.3478.905472.5524.388781.1945.895231.4349 1.519349.7213.726412.3173 1.381216.6344 1.964411.9515.583173.307 1.084507.66 1.504003 1.059.41947.399.741757.8646.966859 1.3965.225074.5321.337619 1.1767.337633 1.9337"/>
  </g>
</svg>