<svg height="60" width="240" xmlns="http://www.w3.org/2000/svg"><g transform="translate(0 -992.36218)"><path d="m17.166893 1030.7322c-.000009-1.8104-.615912-3.0981-1.847715-3.8633-1.213151-.7653-2.98621-1.1478-5.319178-1.1478v-6.691c1.157151 0 2.183658-.083 3.079525-.2521.91452-.1855 1.679734-.4758 2.295643-.8678.6159-.4105 1.073162-.9331 1.371791-1.5678.317276-.6345.457253-1.3997.419934-2.2954v-8.9028c-.000009-1.3811.177296-2.5568.531919-3.5274.354602-.9892.989169-1.79175 1.903706-2.40773.933178-.63449 2.192981-1.10107 3.779417-1.39975 1.586404-.29858 3.602093-.4479 6.047065-.44794v6.29892c-.746568.022-1.427796.085-2.043682.1963-.597259.113-1.110512.3173-1.539762.6159-.410622.2801-.727905.6719-.951855 1.1758-.223979.504-.335963 1.1573-.335948 1.9597v8.3708c-.111991 3.4901-2.295658 5.5619-6.550989 6.2151v.3359c2.146325.3173 3.788735.9891 4.92724 2.0156 1.138475 1.0266 1.679725 2.4169 1.623749 4.1713v8.3707c-.000015.8025.111971 1.456.335948 1.9598.22395.5039.541233.8957.951855 1.1758.42925.2987.942503.5039 1.539762.6158.615886.1131 1.297114.1771 2.043682.1963v6.3271c-2.444972 0-4.460661-.1493-6.047065-.4479-1.586436-.2988-2.846239-.7654-3.779417-1.3998-.914537-.6161-1.549104-1.4186-1.903706-2.4078-.354623-.9891-.531928-2.1742-.531919-3.5554v-8.8187" fill="white" opacity="0.5"/><path d="m226.20733 1039.5513c-.00002 1.3812-.17733 2.5662-.53193 3.5554-.35462.9891-.99851 1.7917-1.9317 2.4077-.91453.6345-2.165 1.1011-3.75142 1.3999-1.58643.2983-3.60211.4479-6.04706.4479v-6.3271c.74655-.022 1.41844-.085 2.01568-.1963.59724-.113 1.10116-.3171 1.51177-.6159.42927-.28.75588-.6718.97985-1.1757.24263-.5038.36394-1.1573.36394-1.9598v-8.3708c-.056-1.7543.48525-3.1447 1.62375-4.1712 1.13849-1.0265 2.77157-1.6983 4.89924-2.0156v-.3359c-4.23668-.6533-6.41101-2.7251-6.52299-6.2152v-8.3707c0-.8024-.12131-1.4557-.36394-1.9597-.22397-.5039-.55058-.8958-.97985-1.1759-.41061-.2985-.91453-.5039-1.51177-.6158-.59724-.1131-1.26913-.1771-2.01568-.1963v-6.29893c2.44495.00004 4.46063.1493 6.04706.44795 1.58642.29867 2.83689.76529 3.75142 1.39971.93319.61592 1.57708 1.41847 1.9317 2.40777.3546.9705.53191 2.1463.53193 3.5274v8.9028c-.0187.8957.12131 1.6609.41993 2.2954.2986.6346.75587 1.1573 1.3718 1.5678.61588.392 1.37176.6812 2.26763.8678.91452.1685 1.95035.2521 3.10753.2521v6.691c-2.33299 0-4.11538.3825-5.34718 1.1478-1.21316.7652-1.81973 2.0529-1.81971 3.8633v8.8187" fill="white" opacity="0.5"/><g stroke="white" fill="white" transform="matrix(2.1291973 0 0 2.1291973 27.043588 -1176.8718)"><path d="m6.7451172 1041.7811c-.2988276 0-.5595695-.02-.7822266-.062-.222655-.035-.4160141-.085-.5800781-.1494v-1.4063c.1992202.053.4130871.094.6416016.1231.2285163.035.4746098.053.7382812.053.2167969 0 .4335936-.029.6503906-.088.2226557-.053.4218742-.1523.5976563-.2988.1816394-.1465.3281236-.3486.4394531-.6064.1113266-.2579.1669906-.586.1669922-.9844v-12.8496h1.6435545v12.6738c-.000003.6152-.08789 1.1484-.2636717 1.5996-.1699247.4512-.4101588.8233-.7207031 1.1162-.3046895.2988-.6738297.5186-1.1074219.6592-.4277351.1465-1.0118163.2197-1.5333004.2197"/><path d="m18.43125 1037.0262h-.07031c-.193366.2637-.386725.4922-.580079.6856-.193365.1875-.404302.3428-.632812.4658-.228521.1231-.483403.2139-.764648.2725-.281255.059-.60645.088-.975586.088-.4043 0-.77637-.059-1.116211-.1758-.339846-.1113-.635744-.2842-.887696-.5186-.246095-.2402-.439454-.539-.580078-.8965-.140626-.3632-.210938-.791-.210937-1.2832-.000001-.9609.336913-1.6992 1.010742-2.2148.679685-.5156 1.710934-.7969 3.09375-.8438l1.617187-.062v-.6064c-.000006-.3926-.04395-.7207-.131836-.9844-.08204-.2637-.205084-.4746-.36914-.6328-.158209-.1641-.357428-.2813-.597656-.3516-.234381-.07-.503912-.1054-.808594-.1054-.486332 0-.940434.07-1.362305.2109-.416018.1406-.817385.3106-1.204101.5098l-.5625-1.2041c.433591-.2344.916989-.4336 1.450195-.5977.5332-.164 1.092769-.2461 1.678711-.2461.597651 0 1.113275.062 1.546875.1846.439446.1172.799798.3076 1.081055.5713.287101.2578.500968.5888.641601.9931.140617.4043.210929.8936.210938 1.4678v6.6094h-1.154296zm-2.610349.2153c.357417 0 .688471-.056.993164-.167.304682-.1113.568353-.2783.791015-.501.22265-.2285.395502-.5127.518555-.8525.1289-.3457.193353-.75.193359-1.2129v-.8701l-1.256836.062c-.527348.023-.969731.082-1.327148.1758-.357426.094-.644535.2256-.861328.3955-.210941.164-.363284.3662-.457031.6064-.09375.2344-.140628.501-.140625.7998-.000003.5391.140622.9346.421875 1.1865.287106.252.662105.378 1.125.378"/><path d="m21.249219 1028.7118h1.652344l1.749023 5.3701c.06445.1934.140622.4424.228516.7471.08789.3047.175777.6152.263672.9316.08789.3164.166988.6153.237304.8965.07617.2813.125973.4951.149414.6416h.06152c.02929-.1465.0791-.3603.149414-.6416.07031-.2812.149409-.5801.237305-.8965.08788-.3164.175776-.6269.263671-.9316.08789-.3047.164058-.5537.228516-.7471l1.749024-5.3701h1.652343l-3.295898 9.6504h-2.030272z"/><path d="m36.407032 1037.0262h-.07031c-.193366.2637-.386725.4922-.580079.6856-.193365.1875-.404302.3428-.632812.4658-.228521.1231-.483403.2139-.764649.2725-.281254.059-.606449.088-.975585.088-.404301 0-.776371-.059-1.116211-.1758-.339846-.1113-.635744-.2842-.887696-.5186-.246095-.2402-.439454-.539-.580078-.8965-.140626-.3632-.210938-.791-.210937-1.2832-.000001-.9609.336913-1.6992 1.010742-2.2148.679685-.5156 1.710934-.7969 3.09375-.8438l1.617187-.062v-.6064c-.000006-.3926-.04395-.7207-.131836-.9844-.08204-.2637-.205084-.4746-.36914-.6328-.158209-.1641-.357428-.2813-.597656-.3516-.234381-.07-.503912-.1054-.808594-.1054-.486333 0-.940434.07-1.362305.2109-.416018.1406-.817385.3106-1.204101.5098l-.5625-1.2041c.433591-.2344.916989-.4336 1.450195-.5977.533199-.164 1.092769-.2461 1.678711-.2461.597651 0 1.113275.062 1.546875.1846.439446.1172.799797.3076 1.081054.5713.287102.2578.500969.5888.641602.9931.140617.4043.210929.8936.210938 1.4678v6.6094l-1.151369.0002zm-2.61035.2194c.357418 0 .688472-.056.993165-.167.304682-.1113.568353-.2783.791015-.501.22265-.2285.395502-.5127.518555-.8525.1289-.3457.193353-.75.193359-1.2129v-.8701l-1.256836.062c-.527348.023-.969731.082-1.327148.1758-.357426.094-.644535.2256-.861328.3955-.210941.164-.363284.3662-.457032.6064-.09375.2344-.140627.501-.140625.7998-.000002.5391.140623.9346.421875 1.1865.287107.252.662106.378 1.125.378"/><path d="m47.7416 1034.9257c-.000008.5683-.102547 1.0781-.307617 1.5293-.199227.4453-.486336.8232-.861328 1.1337-.375007.3106-.832038.5479-1.371094.712-.539068.1582-1.145513.2373-1.819336.2373-.650394 0-1.259768-.053-1.828125-.1582-.562502-.1-1.034181-.2491-1.415039-.4483v-1.5644c.199218.094.424803.1875.676758.2812.25781.088.527341.167.808594.2373.281247.07.571286.1289.870117.1758.298824.041.594722.062.887695.062.937495 0 1.628901-.1758 2.074219-.5273.451165-.3516.676751-.8555.676758-1.5117-.000007-.3164-.04395-.5918-.131836-.8262-.08204-.2344-.231452-.4482-.448243-.6416-.210943-.1992-.495123-.3897-.852539-.5713-.357427-.1875-.808598-.3896-1.353515-.6064-.521488-.2051-.975589-.4278-1.362305-.668-.380862-.2461-.697268-.5215-.949219-.8262-.246095-.3047-.430665-.6504-.553711-1.0371-.117188-.3867-.175782-.8262-.175781-1.3184-.000001-.5156.09375-.9755.28125-1.3798.187499-.4043.45117-.7442.791016-1.0196.339841-.2812.744138-.4951 1.21289-.6416.474606-.1464.99609-.2197 1.564454-.2197.69726 0 1.324212.067 1.880859.2022.556633.1289 1.05175.2959 1.485351.5009l-.588867 1.3711c-.380866-.1699-.81446-.3164-1.300781-.4394-.480475-.1289-.978521-.1934-1.494141-.1934-.714848 0-1.268558.167-1.661132.501-.392581.3281-.58887.7734-.588868 1.3359-.000002.334.04394.6241.131836.8701.08789.2403.234372.46.439453.6592.205075.1934.474606.378.808594.5537.33984.17.755855.3516 1.248047.545.533197.2109.999017.4277 1.397461.6503.40429.2227.741204.4747 1.010742.7559.269524.2813.471672.6065.606446.9756.140616.3691.21506.8222.215068 1.3261"/><path d="m53.697266 1038.538c-.591802 0-1.145512-.091-1.661133-.2725-.515628-.1875-.96387-.4805-1.344727-.8789-.380861-.4043-.679689-.917-.896484-1.5381-.216798-.6269-.325196-1.3799-.325195-2.2588-.000001-.9199.111327-1.6992.333984-2.3379.222655-.6445.527342-1.166.914062-1.5644.392576-.4043.849607-.6973 1.371094-.8789.52148-.1817 1.08105-.2725 1.678711-.2725.457026 0 .902338.05 1.335938.1494.439446.1.805656.2227 1.098632.3692l-.474609 1.3535c-.134773-.059-.284187-.1143-.448242-.167-.164069-.059-.333991-.1084-.509766-.1494-.175787-.047-.348639-.082-.518554-.1055-.169928-.029-.331061-.044-.483399-.044-.919926 0-1.590824.2959-2.012695.8877-.421878.5859-.632815 1.5-.632813 2.7421-.000002 1.2364.210935 2.1416.632813 2.7159.42773.5683 1.075191.8525 1.942383.8525.474603 0 .902337-.053 1.283203-.1582.386712-.1113.738274-.2402 1.054687-.3867v1.4238c-.316413.1699-.656257.2988-1.019531.3867-.357428.088-.820319.1319-1.341797.1319"/><path d="m62.412697 1028.536c.169916 0 .360345.01.571289.026.210931.012.392571.032.544922.062l-.210938 1.4766c-.164069-.029-.33399-.053-.509765-.07-.169928-.024-.331061-.035-.483399-.035-.369146 0-.706059.076-1.010742.2285-.304692.1465-.568363.3604-.791016.6416-.2168.2754-.386722.6094-.509765 1.002-.117191.3867-.175785.8174-.175781 1.292v5.2031h-1.59961v-9.6504h1.300781l.19336 1.7666h.07031c.146481-.252.301755-.4951.465821-.7295.169918-.2344.357418-.4394.5625-.6152.210933-.1817.445308-.3252.703125-.4307.257807-.1113.578119-.167.90625-.167"/><path d="m66.909374 1038.3622h-1.599609v-9.6504h1.599609zm-1.458984-13.0254c.181639-.1582.404295-.2373.667969-.2373.128903 0 .24902.02.360351.062.117185.035.216794.094.298828.1758.08789.082.155271.1875.202149.3164.05273.1231.0791.2725.0791.4482-.000003.3399-.09375.5948-.28125.7647-.181643.1641-.401369.2461-.659179.2461-.263674 0-.493248-.1235-.674887-.2876-.175783-.1641-.258904-.4189-.257828-.7442.0011-.331.08897-.5859.264747-.7441z" stroke-linecap="square" stroke-width=".999907"/><path d="m74.244923 1038.538c-.345709 0-.659185-.038-.94043-.1143-.281255-.076-.536137-.1758-.764648-.2988-.222661-.1289-.421879-.2783-.597657-.4483-.169925-.1699-.322269-.3486-.457031-.5361h-.105469c.01757.1992.03515.3897.05273.5713.01171.1523.02343.3105.03516.4746.01172.1582.01757.2842.01758.3779v4.1221h-1.599609v-13.9746h1.300781l.228516 1.3008h.07031c.134762-.2051.287106-.3955.457031-.5713.169918-.1816.366207-.3369.588867-.4658.228512-.1348.483394-.2403.764649-.3164.281245-.082.597651-.1231.949219-.1231.550774 0 1.051751.1055 1.502929.3164.451164.211.834953.5274 1.151368.9492.322256.4161.571279.9346.74707 1.5557.175772.6211.263662 1.3418.263672 2.1621-.00001.8262-.0879 1.5527-.263672 2.1797-.175791.6211-.424814 1.1426-.74707 1.5644-.316415.4219-.700204.7413-1.151368.9581-.451178.2109-1.06315.3164-1.613924.3164m-.196623-8.6748c-.445317 0-.823246.067-1.133789.2021-.304691.1348-.553714.3399-.74707.6152-.187503.2754-.328128.6182-.421875 1.0284-.08789.4101-.137698.8935-.149414 1.4502v.3603c-.000003.5918.03808 1.1192.114258 1.582.08203.4571.216793.8438.404297 1.1602.193355.3105.448238.5478.764648.7119.316402.1582.711909.2373 1.186524.2373.791009 0 1.371086-.3193 1.740234-.958.374992-.6387.562492-1.5557.5625-2.751-.000008-1.2187-.187508-2.1298-.5625-2.7334-.369148-.6035-.955085-.9052-1.757813-.9052"/><path d="m83.250389 1037.2284c.105464 0 .222652-.01.351563-.018.13476-.012.263666-.026.386718-.044.123042-.018.23437-.038.333985-.062.105463-.023.184564-.044.237304-.062v1.2129c-.07618.035-.172857.07-.290039.1055-.117193.035-.246099.064-.386718.088-.14063.029-.287115.05-.439454.062-.152348.018-.301762.026-.448242.026-.363285 0-.700199-.047-1.010742-.1407-.31055-.094-.580081-.2548-.808594-.4834-.222658-.2285-.398439-.5361-.527343-.9228-.128908-.3926-.193361-.8848-.19336-1.4766v-5.5986h-1.362304v-.7119l1.362304-.6856.685547-2.0215h.922852v2.2149h2.425781v1.2041h-2.425781v5.5986c-.000004.5684.09082.9961.272461 1.2832.187496.2871.492183.4307.914062.4307"/></g></g></svg>
