<svg height="60" width="120" xmlns="http://www.w3.org/2000/svg"><g fill="white" opacity="0.5" transform="matrix(.64007263 0 0 .64007263 30.557249 -616.15086)"><path d="m12.885742 997.82508c-.000006-1.32617-.451177-2.26953-1.353515-2.83008-.888676-.56054-2.1875028-.84081-3.8964848-.84082v-4.90137c.8476548.00001 1.5996071-.0615 2.2558598-.18457.669918-.1367 1.230464-.34862 1.68164-.63574.451167-.30077.786128-.68358 1.004883-1.14844.232416-.46483.334955-1.02537.307617-1.68164v-6.52148c-.000006-1.0117.129877-1.87303.389649-2.58399.259759-.72458.724602-1.31247 1.394531-1.76367.683585-.46482 1.606436-.80661 2.768555-1.02539 1.162097-.21872 2.638658-.3281 4.429687-.32813v4.61426c-.546889.0137-1.045912.0616-1.49707.14356-.437513.0821-.813489.23244-1.12793.45117-.300793.2051-.533215.49221-.697266.86133-.164073.36916-.246105.84768-.246093 1.43554v6.13184c-.08204 2.55665-1.681651 4.07423-4.798828 4.55273v.2461c1.572257.23243 2.775381.72462 3.609375 1.47656.833973.75196 1.230457 1.77052 1.189453 3.05566v6.13179c-.000012.5879.08202 1.0665.246093 1.4356.164051.3691.396473.6562.697266.8613.314441.2188.690417.3692 1.12793.4512.451158.082.950181.1299 1.49707.1436v4.6347c-1.791029 0-3.26759-.1094-4.429687-.3281-1.162119-.2188-2.08497-.5606-2.768555-1.0254-.669929-.4512-1.134772-1.0391-1.394531-1.7637-.259772-.7246-.389655-1.5927-.389649-2.6045z"/><path d="m24.557226 1000.4296c-.000002-.64261.08886-1.18264.266602-1.62015.191403-.45117.451169-.81347.779297-1.08691.328121-.27343.710933-.47168 1.148437-.59473.437495-.12304.909174-.18456 1.415039-.18457.478509.00001.929681.0615 1.353516.18457.437492.12305.820304.3213 1.148437.59473.328116.27344.587882.63574.779297 1.08691.191397.43751.2871.97754.28711 1.62015-.00001.6152-.09571 1.1416-.28711 1.5791-.191415.4375-.451181.7998-.779297 1.0869-.328133.2871-.710945.4922-1.148437.6152-.423835.1367-.875007.2051-1.353516.2051-.505865 0-.977544-.068-1.415039-.2051-.437504-.123-.820316-.3281-1.148437-.6152-.328128-.2871-.587894-.6494-.779297-1.0869-.177737-.4375-.266604-.9639-.266602-1.5791"/><path d="m36.126171 1013.452c-.656251 0-1.333008-.048-2.030273-.1435-.697265-.096-1.278319-.2188-1.743164-.3692v-4.9218c.423829.1367.820313.2324 1.189453.2871.36914.068.786132.1025 1.250976.1025.341796 0 .663085-.055.963867-.1641.314452-.096.581053-.2802.799805-.5537.232419-.2597.416989-.6152.553711-1.0664.136716-.4375.205075-1.0049.205078-1.7021v-24.48635h6.254883v25.40915c-.000009 1.0528-.136728 2.0371-.410156 2.9532-.259775.9296-.690438 1.7363-1.291992 2.4199-.587898.6972-1.353522 1.2441-2.296875 1.6406-.943364.3965-2.091801.5947-3.445313.5947m.922852-38.94431c-.000003-.58786.08886-1.07321.266601-1.45605.177731-.39646.416989-.71091.717774-.94336.314448-.24606.676753-.41696 1.086914-.5127.423822-.0957.868158-.14352 1.333008-.14355.464836.00003.902336.0479 1.3125.14355.410148.0957.765616.26664 1.066406.5127.314444.23245.560537.5469.738281.94336.191397.38284.2871.86819.287109 1.45605-.000009.57425-.09571 1.0596-.287109 1.45606-.177744.39651-.423837.7178-.738281.96386-.30079.23245-.656258.40335-1.066406.5127-.410164.0957-.847664.14358-1.3125.14355-.46485.00003-.909186-.0478-1.333008-.14355-.410161-.10935-.772466-.28025-1.086914-.5127-.300785-.24606-.540043-.56735-.717774-.96386-.177737-.39646-.266604-.88181-.266601-1.45606"/><path d="m65.290821 996.55359c-.000018 1.20313-.218768 2.25587-.65625 3.1582-.437517.90231-1.059587 1.65431-1.866211 2.25591-.806656.6015-1.784194 1.0527-2.932617 1.3535-1.14845.3008-2.433604.4511-3.855469.4511-.751961 0-1.449226-.027-2.091797-.082-.642584-.041-1.250982-.1162-1.825195-.2256-.574223-.1093-1.127934-.2461-1.661133-.4101-.533206-.1641-1.073245-.3692-1.620117-.6153v-5.16793c.574216.28711 1.175778.54688 1.804688.77929.642573.23243 1.278315.43751 1.907226.61524.6289.16406 1.237298.29395 1.825195.38965.601555.0957 1.155265.14355 1.661133.14355.560537 0 1.039052-.0479 1.435547-.14355.396473-.10937.717762-.25293.963867-.43067.259754-.1914.444324-.41015.553711-.65625.123035-.25976.184558-.5332.184571-.82031-.000013-.2871-.04786-.54003-.143555-.75879-.08204-.23241-.280286-.47167-.594727-.71777-.314464-.25976-.779307-.54687-1.394531-.86133-.601572-.32812-1.415048-.7246-2.44043-1.18945-.998053-.45117-1.866217-.8955-2.604492-1.33301-.724614-.45116-1.326176-.95019-1.804687-1.49707-.464847-.54686-.81348-1.16893-1.045899-1.86621-.232424-.71093-.348635-1.55175-.348633-2.52246-.000002-1.06639.205076-1.99608.615235-2.78907.410153-.80662.991207-1.47654 1.743164-2.00976.751948-.53318 1.654291-.92967 2.707031-1.18946 1.066398-.27341 2.249014-.41013 3.547852-.41015 1.367175.00002 2.666002.15725 3.896484.47168 1.230453.31447 2.4951.78615 3.793945 1.41504l-1.886718 4.42968c-1.039078-.49217-2.030288-.89549-2.973633-1.20996-.943372-.31443-1.886731-.47166-2.830078-.47168-.847666.00002-1.4629.15041-1.845703.45118-.36915.30079-.55372.71095-.553711 1.23046-.000009.27346.04784.51955.143554.73829.09569.20509.287101.42384.574219.65625.2871.21876.69042.46485 1.209961.73828.519521.25978 1.196278.58107 2.030273.96386.97069.42385 1.845689.84767 2.625 1.27149.779282.41017 1.449203.88184 2.009766 1.41504.56053.53321.991193 1.15528 1.291992 1.86621.300763.71094.451154 1.57227.451172 2.58398"/><path d="m76.4291 1004.285c-.00001 1.0118-.129892 1.8799-.389648 2.6045-.259775.7246-.731454 1.3125-1.415039 1.7637-.669929.4648-1.585944.8066-2.748047 1.0254-1.162114.2187-2.638675.3281-4.429688.3281v-4.6347c.546874-.014 1.039061-.062 1.476563-.1436.437497-.082.806637-.2324 1.107422-.4512.314449-.2051.553707-.4922.717773-.8613.17773-.3691.266597-.8477.266602-1.4356v-6.13179c-.04102-1.28514.355464-2.3037 1.189453-3.05566.833978-.75194 2.030266-1.24413 3.588867-1.47656v-.2461c-3.103522-.4785-4.696293-1.99608-4.77832-4.55273v-6.13184c-.000005-.58786-.08887-1.06638-.266602-1.43554-.164066-.36912-.403324-.65623-.717773-.86133-.300785-.21873-.669925-.36912-1.107422-.45117-.437502-.082-.929689-.12986-1.476563-.14356v-4.61426c1.791013.00003 3.267574.10941 4.429688.32813 1.162103.21878 2.078118.56057 2.748047 1.02539.683585.4512 1.155264 1.03909 1.415039 1.76367.259756.71096.389638 1.57229.389648 2.58399v6.52148c-.01368.65627.08886 1.21681.307617 1.68164.21874.46486.553701.84767 1.004883 1.14844.451161.28712 1.004871.49904 1.661133.63574.669908.12306 1.428697.18458 2.276367.18457v4.90137c-1.708997.00001-3.01466.28028-3.916992.84082-.888682.56055-1.333018 1.50391-1.333008 2.83008z"/></g><g stroke="white" fill="white" transform="translate(14.338983 -987.582519)"><path d="m6.7451172 1041.7811c-.2988276 0-.5595695-.02-.7822266-.062-.222655-.035-.4160141-.085-.5800781-.1494v-1.4063c.1992202.053.4130871.094.6416016.1231.2285163.035.4746098.053.7382812.053.2167969 0 .4335936-.029.6503906-.088.2226557-.053.4218742-.1523.5976563-.2988.1816394-.1465.3281236-.3486.4394531-.6064.1113266-.2579.1669906-.586.1669922-.9844v-12.8496h1.6435545v12.6738c-.000003.6152-.08789 1.1484-.2636717 1.5996-.1699247.4512-.4101588.8233-.7207031 1.1162-.3046895.2988-.6738297.5186-1.1074219.6592-.4277351.1465-1.0118163.2197-1.5333004.2197"/><path d="m18.43125 1037.0262h-.07031c-.193366.2637-.386725.4922-.580079.6856-.193365.1875-.404302.3428-.632812.4658-.228521.1231-.483403.2139-.764648.2725-.281255.059-.60645.088-.975586.088-.4043 0-.77637-.059-1.116211-.1758-.339846-.1113-.635744-.2842-.887696-.5186-.246095-.2402-.439454-.539-.580078-.8965-.140626-.3632-.210938-.791-.210937-1.2832-.000001-.9609.336913-1.6992 1.010742-2.2148.679685-.5156 1.710934-.7969 3.09375-.8438l1.617187-.062v-.6064c-.000006-.3926-.04395-.7207-.131836-.9844-.08204-.2637-.205084-.4746-.36914-.6328-.158209-.1641-.357428-.2813-.597656-.3516-.234381-.07-.503912-.1054-.808594-.1054-.486332 0-.940434.07-1.362305.2109-.416018.1406-.817385.3106-1.204101.5098l-.5625-1.2041c.433591-.2344.916989-.4336 1.450195-.5977.5332-.164 1.092769-.2461 1.678711-.2461.597651 0 1.113275.062 1.546875.1846.439446.1172.799798.3076 1.081055.5713.287101.2578.500968.5888.641601.9931.140617.4043.210929.8936.210938 1.4678v6.6094h-1.154296zm-2.610349.2153c.357417 0 .688471-.056.993164-.167.304682-.1113.568353-.2783.791015-.501.22265-.2285.395502-.5127.518555-.8525.1289-.3457.193353-.75.193359-1.2129v-.8701l-1.256836.062c-.527348.023-.969731.082-1.327148.1758-.357426.094-.644535.2256-.861328.3955-.210941.164-.363284.3662-.457031.6064-.09375.2344-.140628.501-.140625.7998-.000003.5391.140622.9346.421875 1.1865.287106.252.662105.378 1.125.378"/><path d="m21.249219 1028.7118h1.652344l1.749023 5.3701c.06445.1934.140622.4424.228516.7471.08789.3047.175777.6152.263672.9316.08789.3164.166988.6153.237304.8965.07617.2813.125973.4951.149414.6416h.06152c.02929-.1465.0791-.3603.149414-.6416.07031-.2812.149409-.5801.237305-.8965.08788-.3164.175776-.6269.263671-.9316.08789-.3047.164058-.5537.228516-.7471l1.749024-5.3701h1.652343l-3.295898 9.6504h-2.030272z"/><path d="m36.407032 1037.0262h-.07031c-.193366.2637-.386725.4922-.580079.6856-.193365.1875-.404302.3428-.632812.4658-.228521.1231-.483403.2139-.764649.2725-.281254.059-.606449.088-.975585.088-.404301 0-.776371-.059-1.116211-.1758-.339846-.1113-.635744-.2842-.887696-.5186-.246095-.2402-.439454-.539-.580078-.8965-.140626-.3632-.210938-.791-.210937-1.2832-.000001-.9609.336913-1.6992 1.010742-2.2148.679685-.5156 1.710934-.7969 3.09375-.8438l1.617187-.062v-.6064c-.000006-.3926-.04395-.7207-.131836-.9844-.08204-.2637-.205084-.4746-.36914-.6328-.158209-.1641-.357428-.2813-.597656-.3516-.234381-.07-.503912-.1054-.808594-.1054-.486333 0-.940434.07-1.362305.2109-.416018.1406-.817385.3106-1.204101.5098l-.5625-1.2041c.433591-.2344.916989-.4336 1.450195-.5977.533199-.164 1.092769-.2461 1.678711-.2461.597651 0 1.113275.062 1.546875.1846.439446.1172.799797.3076 1.081054.5713.287102.2578.500969.5888.641602.9931.140617.4043.210929.8936.210938 1.4678v6.6094l-1.151369.0002zm-2.61035.2194c.357418 0 .688472-.056.993165-.167.304682-.1113.568353-.2783.791015-.501.22265-.2285.395502-.5127.518555-.8525.1289-.3457.193353-.75.193359-1.2129v-.8701l-1.256836.062c-.527348.023-.969731.082-1.327148.1758-.357426.094-.644535.2256-.861328.3955-.210941.164-.363284.3662-.457032.6064-.09375.2344-.140627.501-.140625.7998-.000002.5391.140623.9346.421875 1.1865.287107.252.662106.378 1.125.378"/><path d="m47.7416 1034.9257c-.000008.5683-.102547 1.0781-.307617 1.5293-.199227.4453-.486336.8232-.861328 1.1337-.375007.3106-.832038.5479-1.371094.712-.539068.1582-1.145513.2373-1.819336.2373-.650394 0-1.259768-.053-1.828125-.1582-.562502-.1-1.034181-.2491-1.415039-.4483v-1.5644c.199218.094.424803.1875.676758.2812.25781.088.527341.167.808594.2373.281247.07.571286.1289.870117.1758.298824.041.594722.062.887695.062.937495 0 1.628901-.1758 2.074219-.5273.451165-.3516.676751-.8555.676758-1.5117-.000007-.3164-.04395-.5918-.131836-.8262-.08204-.2344-.231452-.4482-.448243-.6416-.210943-.1992-.495123-.3897-.852539-.5713-.357427-.1875-.808598-.3896-1.353515-.6064-.521488-.2051-.975589-.4278-1.362305-.668-.380862-.2461-.697268-.5215-.949219-.8262-.246095-.3047-.430665-.6504-.553711-1.0371-.117188-.3867-.175782-.8262-.175781-1.3184-.000001-.5156.09375-.9755.28125-1.3798.187499-.4043.45117-.7442.791016-1.0196.339841-.2812.744138-.4951 1.21289-.6416.474606-.1464.99609-.2197 1.564454-.2197.69726 0 1.324212.067 1.880859.2022.556633.1289 1.05175.2959 1.485351.5009l-.588867 1.3711c-.380866-.1699-.81446-.3164-1.300781-.4394-.480475-.1289-.978521-.1934-1.494141-.1934-.714848 0-1.268558.167-1.661132.501-.392581.3281-.58887.7734-.588868 1.3359-.000002.334.04394.6241.131836.8701.08789.2403.234372.46.439453.6592.205075.1934.474606.378.808594.5537.33984.17.755855.3516 1.248047.545.533197.2109.999017.4277 1.397461.6503.40429.2227.741204.4747 1.010742.7559.269524.2813.471672.6065.606446.9756.140616.3691.21506.8222.215068 1.3261"/><path d="m53.697266 1038.538c-.591802 0-1.145512-.091-1.661133-.2725-.515628-.1875-.96387-.4805-1.344727-.8789-.380861-.4043-.679689-.917-.896484-1.5381-.216798-.6269-.325196-1.3799-.325195-2.2588-.000001-.9199.111327-1.6992.333984-2.3379.222655-.6445.527342-1.166.914062-1.5644.392576-.4043.849607-.6973 1.371094-.8789.52148-.1817 1.08105-.2725 1.678711-.2725.457026 0 .902338.05 1.335938.1494.439446.1.805656.2227 1.098632.3692l-.474609 1.3535c-.134773-.059-.284187-.1143-.448242-.167-.164069-.059-.333991-.1084-.509766-.1494-.175787-.047-.348639-.082-.518554-.1055-.169928-.029-.331061-.044-.483399-.044-.919926 0-1.590824.2959-2.012695.8877-.421878.5859-.632815 1.5-.632813 2.7421-.000002 1.2364.210935 2.1416.632813 2.7159.42773.5683 1.075191.8525 1.942383.8525.474603 0 .902337-.053 1.283203-.1582.386712-.1113.738274-.2402 1.054687-.3867v1.4238c-.316413.1699-.656257.2988-1.019531.3867-.357428.088-.820319.1319-1.341797.1319"/><path d="m62.412697 1028.536c.169916 0 .360345.01.571289.026.210931.012.392571.032.544922.062l-.210938 1.4766c-.164069-.029-.33399-.053-.509765-.07-.169928-.024-.331061-.035-.483399-.035-.369146 0-.706059.076-1.010742.2285-.304692.1465-.568363.3604-.791016.6416-.2168.2754-.386722.6094-.509765 1.002-.117191.3867-.175785.8174-.175781 1.292v5.2031h-1.59961v-9.6504h1.300781l.19336 1.7666h.07031c.146481-.252.301755-.4951.465821-.7295.169918-.2344.357418-.4394.5625-.6152.210933-.1817.445308-.3252.703125-.4307.257807-.1113.578119-.167.90625-.167"/><path d="m66.909374 1038.3622h-1.599609v-9.6504h1.599609zm-1.458984-13.0254c.181639-.1582.404295-.2373.667969-.2373.128903 0 .24902.02.360351.062.117185.035.216794.094.298828.1758.08789.082.155271.1875.202149.3164.05273.1231.0791.2725.0791.4482-.000003.3399-.09375.5948-.28125.7647-.181643.1641-.401369.2461-.659179.2461-.263674 0-.493248-.1235-.674887-.2876-.175783-.1641-.258904-.4189-.257828-.7442.0011-.331.08897-.5859.264747-.7441z"/><path d="m74.244923 1038.538c-.345709 0-.659185-.038-.94043-.1143-.281255-.076-.536137-.1758-.764648-.2988-.222661-.1289-.421879-.2783-.597657-.4483-.169925-.1699-.322269-.3486-.457031-.5361h-.105469c.01757.1992.03515.3897.05273.5713.01171.1523.02343.3105.03516.4746.01172.1582.01757.2842.01758.3779v4.1221h-1.599609v-13.9746h1.300781l.228516 1.3008h.07031c.134762-.2051.287106-.3955.457031-.5713.169918-.1816.366207-.3369.588867-.4658.228512-.1348.483394-.2403.764649-.3164.281245-.082.597651-.1231.949219-.1231.550774 0 1.051751.1055 1.502929.3164.451164.211.834953.5274 1.151368.9492.322256.4161.571279.9346.74707 1.5557.175772.6211.263662 1.3418.263672 2.1621-.00001.8262-.0879 1.5527-.263672 2.1797-.175791.6211-.424814 1.1426-.74707 1.5644-.316415.4219-.700204.7413-1.151368.9581-.451178.2109-1.06315.3164-1.613924.3164m-.196623-8.6748c-.445317 0-.823246.067-1.133789.2021-.304691.1348-.553714.3399-.74707.6152-.187503.2754-.328128.6182-.421875 1.0284-.08789.4101-.137698.8935-.149414 1.4502v.3603c-.000003.5918.03808 1.1192.114258 1.582.08203.4571.216793.8438.404297 1.1602.193355.3105.448238.5478.764648.7119.316402.1582.711909.2373 1.186524.2373.791009 0 1.371086-.3193 1.740234-.958.374992-.6387.562492-1.5557.5625-2.751-.000008-1.2187-.187508-2.1298-.5625-2.7334-.369148-.6035-.955085-.9052-1.757813-.9052"/><path d="m83.250389 1037.2284c.105464 0 .222652-.01.351563-.018.13476-.012.263666-.026.386718-.044.123042-.018.23437-.038.333985-.062.105463-.023.184564-.044.237304-.062v1.2129c-.07618.035-.172857.07-.290039.1055-.117193.035-.246099.064-.386718.088-.14063.029-.287115.05-.439454.062-.152348.018-.301762.026-.448242.026-.363285 0-.700199-.047-1.010742-.1407-.31055-.094-.580081-.2548-.808594-.4834-.222658-.2285-.398439-.5361-.527343-.9228-.128908-.3926-.193361-.8848-.19336-1.4766v-5.5986h-1.362304v-.7119l1.362304-.6856.685547-2.0215h.922852v2.2149h2.425781v1.2041h-2.425781v5.5986c-.000004.5684.09082.9961.272461 1.2832.187496.2871.492183.4307.914062.4307"/></g></svg>
