<svg height="60" viewBox="0 0 120 60" width="120" xmlns="http://www.w3.org/2000/svg"><g fill-rule="evenodd"><g fill="none" transform="matrix(.06927983 0 0 .06927983 7.367398 13.505331)"><circle cx="269.52899" cy="237.62801" fill="white" r="50.167"/><g stroke="white" stroke-width="24"><path d="m269.529 135.628c67.356 0 129.928 9.665 177.107 25.907 56.844 19.569 91.794 49.233 91.794 76.093 0 27.991-37.041 59.503-98.083 79.728-46.151 15.291-106.879 23.272-170.818 23.272-65.554 0-127.63-7.492-174.29-23.441-59.046-20.182-94.611-52.103-94.611-79.559 0-26.642 33.37-56.076 89.415-75.616 47.355-16.509 111.472-26.384 179.486-26.384z"/><path d="m180.736 186.922c33.649-58.348 73.281-107.724 110.92-140.48 45.35-39.466 88.507-54.923 111.775-41.505 24.248 13.983 33.042 61.814 20.067 124.796-9.81 47.618-33.234 104.212-65.176 159.601-32.749 56.788-70.25 106.819-107.377 139.272-46.981 41.068-92.4 55.929-116.185 42.213-23.079-13.31-31.906-56.921-20.834-115.233 9.355-49.27 32.832-109.745 66.81-168.664z"/><path d="m180.821 289.482c-33.746-58.292-56.731-117.287-66.312-166.255-11.544-58.999-3.382-104.109 19.864-117.566 24.224-14.024 70.055 2.244 118.14 44.94 36.356 32.28 73.688 80.837 105.723 136.173 32.844 56.733 57.461 114.209 67.036 162.582 12.117 61.213 2.309 107.984-21.453 121.74-23.057 13.348-65.249-.784-110.239-39.499-38.013-32.711-78.682-83.253-112.759-142.115z"/></g></g><path d="m64.620881 38.847906-4.258852-6.435599c2.153087-.189282 4.09323-1.750861 4.09323-4.590097 0-2.910215-2.058445-4.755717-4.945-4.755717h-6.340958v15.781413h1.963804v-6.269977h3.146819l4.022248 6.269977zm-5.347225-7.997178h-4.140551v-6.033374h4.140551c1.869163 0 3.146818 1.230335 3.146818 3.004856 0 1.774522-1.277655 3.028518-3.146818 3.028518zm12.658255 8.281101c1.869163 0 3.407082-.615167 4.542775-1.750861l-.85177-1.159354c-.899091.922751-2.224067 1.443278-3.525383 1.443278-2.46067 0-3.974929-1.798183-4.116891-3.951269h9.251174v-.449545c0-3.430743-2.034785-6.128015-5.489187-6.128015-3.26512 0-5.631149 2.673612-5.631149 5.986052 0 3.572705 2.437009 6.009714 5.820431 6.009714zm3.549043-6.719522h-7.500312c.09465-1.750861 1.301316-3.809307 3.738326-3.809307 2.602632 0 3.738327 2.105766 3.761986 3.809307zm13.533686 6.435599v-7.855216c0-2.768255-2.011125-3.856627-4.424474-3.856627-1.869163 0-3.336101.615167-4.566435 1.892823l.828109 1.230335c1.017393-1.088374 2.129427-1.58524 3.501724-1.58524 1.656219 0 2.886555.875431 2.886555 2.41335v2.058445c-.922751-1.064713-2.224067-1.561579-3.785647-1.561579-1.940144 0-3.998589 1.206674-3.998589 3.761986 0 2.48433 2.058445 3.785646 3.998589 3.785646 1.53792 0 2.839235-.544186 3.785647-1.585239v1.301316zm-4.92134-.993732c-1.656221 0-2.815574-1.041053-2.815574-2.48433 0-1.466939 1.159353-2.507992 2.815574-2.507992 1.253996 0 2.46067.473207 3.146819 1.419618v2.153086c-.686149.946412-1.892823 1.419618-3.146819 1.419618zm13.510025 1.277655c2.082109 0 3.312445-.85177 4.187875-1.987464l-1.18302-1.088374c-.757124 1.017393-1.727199 1.490599-2.910213 1.490599-2.43701 0-3.951269-1.892823-3.951269-4.424475 0-2.53165 1.514259-4.400813 3.951269-4.400813 1.183014 0 2.153089.449545 2.910213 1.490598l1.18302-1.088373c-.87543-1.135694-2.105766-1.987464-4.187875-1.987464-3.407081 0-5.702129 2.602632-5.702129 5.986052 0 3.407083 2.295048 6.009714 5.702129 6.009714zm9.558765 0c1.04105 0 1.67987-.307583 2.12942-.733469l-.52053-1.324976c-.2366.260264-.70981.473206-1.20667.473206-.78079 0-1.15936-.615167-1.15936-1.466938v-7.098087h2.31871v-1.561579h-2.31871v-3.123159h-1.77452v3.123159h-1.89282v1.561579h1.89282v7.476651c0 1.703542.85177 2.673613 2.53166 2.673613z" fill="white"/></g></svg>
